<svg xmlns="http://www.w3.org/2000/svg" viewBox="0 0 64 64" fill="none">
  <rect width="64" height="64" rx="10" fill="#0a0a0f"/>
  <!-- Racket head -->
  <ellipse cx="32" cy="27.5" rx="12.8" ry="16" stroke="#666" stroke-width="2.8" fill="none"/>
  <!-- Hub center -->
  <circle cx="32" cy="27.5" r="4" fill="#4ADE80"/>
  <!-- Spokes -->
  <circle cx="26.4" cy="21.1" r="2" fill="#4ADE80"/><line x1="32" y1="27.5" x2="26.4" y2="21.1" stroke="#4ADE80" stroke-width="1.2" stroke-dasharray="1.6 1.6"/>
  <circle cx="37.6" cy="21.1" r="2" fill="#4ADE80"/><line x1="32" y1="27.5" x2="37.6" y2="21.1" stroke="#4ADE80" stroke-width="1.2" stroke-dasharray="1.6 1.6"/>
  <circle cx="24.8" cy="29.1" r="2" fill="#4ADE80"/><line x1="32" y1="27.5" x2="24.8" y2="29.1" stroke="#4ADE80" stroke-width="1.2" stroke-dasharray="1.6 1.6"/>
  <circle cx="39.2" cy="29.1" r="2" fill="#4ADE80"/><line x1="32" y1="27.5" x2="39.2" y2="29.1" stroke="#4ADE80" stroke-width="1.2" stroke-dasharray="1.6 1.6"/>
  <circle cx="27.3" cy="34.8" r="2" fill="#4ADE80"/><line x1="32" y1="27.5" x2="27.3" y2="34.8" stroke="#4ADE80" stroke-width="1.2" stroke-dasharray="1.6 1.6"/>
  <circle cx="36.7" cy="34.8" r="2" fill="#4ADE80"/><line x1="32" y1="27.5" x2="36.7" y2="34.8" stroke="#4ADE80" stroke-width="1.2" stroke-dasharray="1.6 1.6"/>
  <circle cx="32" cy="18.8" r="2" fill="#4ADE80"/><line x1="32" y1="27.5" x2="32" y2="18.8" stroke="#4ADE80" stroke-width="1.2" stroke-dasharray="1.6 1.6"/>
  <!-- Handle -->
  <rect x="29.6" y="42.7" width="4.8" height="11.3" rx="2" fill="#666"/>
  <line x1="30.4" y1="46.7" x2="33.6" y2="46.7" stroke="#888" stroke-width="0.75"/>
  <line x1="30.4" y1="49.1" x2="33.6" y2="49.1" stroke="#888" stroke-width="0.75"/>
  <line x1="30.4" y1="51.4" x2="33.6" y2="51.4" stroke="#888" stroke-width="0.75"/>
</svg>
